<?xml version="1.0" encoding="iso-8859-1"?>
<!-- Uploaded to: SVG Repo, www.svgrepo.com, Generator: SVG Repo Mixer Tools -->
<svg height="800px" width="800px" version="1.1" id="Layer_1" xmlns="http://www.w3.org/2000/svg" xmlns:xlink="http://www.w3.org/1999/xlink" 
	 viewBox="0 0 512 512" xml:space="preserve">
<path style="fill:#2A5637;" d="M305.473,473.431c-18.973-8.237-31.233-26.923-31.233-47.607v-20.455
	c0-10.793-8.75-19.543-19.543-19.543s-19.543,8.75-19.543,19.543v20.455c0,36.261,21.492,69.021,54.755,83.46
	c2.534,1.101,5.174,1.622,7.771,1.622c7.549,0,14.739-4.4,17.938-11.766C319.915,489.239,315.374,477.729,305.473,473.431z"/>
<path style="fill:#489B6D;" d="M495.536,41.667c-3.069-7.808-7.566-14.802-13.359-20.788
	c-10.282-10.622-23.899-17.277-38.344-18.736c-64.121-6.484-133.397,17.349-187.834,64.088
	C201.561,19.49,132.289-4.339,68.166,2.143c-14.445,1.459-28.062,8.114-38.344,18.736c-5.794,5.987-10.289,12.98-13.359,20.791
	c-29.146,74.15-19.184,164.71,26.646,242.246c23.76,40.198,55.922,74.499,93.008,99.193c36.378,24.224,76.657,38.611,116.482,41.883
	c0.532,0.044,1.064-0.078,1.6-0.078h3.606c0.534,0,1.067,0.122,1.6,0.078c39.825-3.27,80.104-17.73,116.482-41.954
	c37.086-24.695,69.246-58.959,93.008-99.158C514.722,206.343,524.682,115.82,495.536,41.667z"/>
<path style="fill:#A2CE86;" d="M256,66.231C201.561,19.49,132.289-4.339,68.166,2.143c-14.445,1.459-28.062,8.114-38.344,18.736
	c-5.794,5.987-10.289,12.98-13.359,20.791c-29.146,74.15-19.184,164.71,26.646,242.246c23.76,40.198,55.922,74.499,93.008,99.193
	c36.378,24.224,76.657,38.611,116.482,41.883c0.532,0.044,1.064-0.078,1.6-0.078h1.803V66.231H256z"/>
</svg>