<?xml version="1.0" encoding="iso-8859-1"?>
<!-- Uploaded to: SVG Repo, www.svgrepo.com, Generator: SVG Repo Mixer Tools -->
<svg version="1.1" id="Layer_1" xmlns="http://www.w3.org/2000/svg" xmlns:xlink="http://www.w3.org/1999/xlink" 
	 viewBox="0 0 511.998 511.998" xml:space="preserve">
<path style="fill:#006539;" d="M110.393,406.97c45.947,32.7,70.628,76.866,64.177,85.929c-6.45,9.063-56.264,0.212-102.212-32.487
	c-45.948-32.7-70.627-76.866-64.177-85.929C14.631,365.421,64.445,374.271,110.393,406.97z"/>
<path style="opacity:0.1;enable-background:new    ;" d="M174.57,492.901c-6.45,9.063-56.264,0.212-102.212-32.487
	c-45.948-32.7-70.627-76.866-64.177-85.929L174.57,492.901z"/>
<path style="fill:#006539;" d="M415.553,346.096c32.7-45.947,76.866-70.628,85.929-64.177c9.063,6.45,0.212,56.265-32.487,102.212
	c-32.7,45.947-76.866,70.627-85.929,64.178C374.004,441.857,382.853,392.043,415.553,346.096z"/>
<path style="opacity:0.1;enable-background:new    ;" d="M501.483,281.918c9.063,6.45,0.212,56.265-32.487,102.212
	c-32.7,45.947-76.866,70.628-85.929,64.178L501.483,281.918z"/>
<path style="fill:#00A155;" d="M437.708,304.392c-4.687,56.2-30.085,99.958-41.17,99.033
	c-11.086-0.924-28.884-48.285-24.197-104.485c4.687-56.2,30.085-99.958,41.17-99.033
	C424.596,200.832,442.395,248.192,437.708,304.392z"/>
<path style="opacity:0.1;enable-background:new    ;" d="M396.537,403.425c-11.086-0.924-28.884-48.285-24.197-104.485
	c4.687-56.2,30.085-99.958,41.17-99.033L396.537,403.425z"/>
<path id="SVGCleanerId_0" style="fill:#54C7D8;" d="M153.048,389.328c-62.496,0-113.341-50.845-113.341-113.341
	s50.845-113.341,113.341-113.341s113.341,50.845,113.341,113.341S215.545,389.328,153.048,389.328z M153.048,208.85
	c-37.02,0-67.137,30.117-67.137,67.137c0,37.02,30.117,67.137,67.137,67.137s67.137-30.117,67.137-67.137
	C220.186,238.967,190.069,208.85,153.048,208.85z"/>
<g>
	<path id="SVGCleanerId_0_1_" style="fill:#54C7D8;" d="M153.048,389.328c-62.496,0-113.341-50.845-113.341-113.341
		s50.845-113.341,113.341-113.341s113.341,50.845,113.341,113.341S215.545,389.328,153.048,389.328z M153.048,208.85
		c-37.02,0-67.137,30.117-67.137,67.137c0,37.02,30.117,67.137,67.137,67.137s67.137-30.117,67.137-67.137
		C220.186,238.967,190.069,208.85,153.048,208.85z"/>
</g>
<path style="opacity:0.2;fill:#FFFFFF;enable-background:new    ;" d="M146.223,162.857c-18.927,1.13-36.621,6.919-51.938,16.243
	c4.856,8.25,13.822,13.791,24.088,13.791c15.429,0,27.936-12.508,27.936-27.936C146.309,164.249,146.275,163.55,146.223,162.857z"/>
<path style="opacity:0.1;enable-background:new    ;" d="M162.221,163.018v46.474c32.694,4.489,57.965,32.588,57.965,66.495
	c0,37.02-30.117,67.137-67.137,67.137c-25.971,0-48.528-14.832-59.689-36.462c-2.327,4.775-4.281,9.756-5.78,14.926l0,0
	c-3.847,13.274-6.6,26.783-8.274,40.397c19.837,17.034,45.608,27.343,73.744,27.343c62.496,0,113.341-50.845,113.341-113.341
	C266.39,216.578,220.444,167.703,162.221,163.018z"/>
<path style="fill:#C39774;" d="M319.401,68.151H194.896V8.344c0-4.608,3.736-8.344,8.344-8.344h107.817
	c4.608,0,8.344,3.736,8.344,8.344L319.401,68.151L319.401,68.151z"/>
<circle style="opacity:0.15;enable-background:new    ;" cx="224.654" cy="28.943" r="8.173"/>
<path style="opacity:0.15;enable-background:new    ;" d="M239.653,0c0,4.514,3.659,8.173,8.173,8.173s8.173-3.659,8.173-8.173
	H239.653z"/>
<circle style="opacity:0.15;enable-background:new    ;" cx="292.816" cy="18.525" r="8.173"/>
<rect x="194.894" y="28.943" style="opacity:0.15;enable-background:new    ;" width="124.51" height="39.208"/>
<path style="fill:#54C7D8;" d="M329.745,213.995V64.11H184.553v149.887c0,21.57-11.657,41.455-30.477,51.991l0,0
	c-21.454,12.011-37.319,31.984-44.164,55.6l0,0c-12.949,44.677-13.603,92.02-1.893,137.037l0,0
	c7.406,28.468,33.107,48.339,62.522,48.339h173.216c29.416,0,55.117-19.871,62.522-48.339l0,0
	c11.71-45.017,11.056-92.361-1.893-137.037l0,0c-6.844-23.616-22.71-43.588-44.164-55.6l0,0
	C341.402,255.45,329.745,235.565,329.745,213.995z"/>
<rect x="184.553" y="64.11" style="opacity:0.1;enable-background:new    ;" width="145.193" height="48.77"/>
<path style="fill:#54C7D8;" d="M367.512,43.959H190.829c-11.128,0-20.15,9.022-20.15,20.151l0,0c0,11.128,9.022,20.151,20.15,20.151
	h138.916v27.464l43.829-55.212C377.602,51.44,373.989,43.959,367.512,43.959z"/>
<path style="fill:#FDD05F;" d="M404.387,321.588L404.387,321.588c-6.844-23.616-22.71-43.59-44.164-55.6l0,0
	c-18.82-10.536-30.477-30.421-30.477-51.991v-14.103H184.553v14.103c0,21.57-11.657,41.455-30.477,51.991l0,0
	c-21.454,12.011-37.319,31.984-44.164,55.6l0,0c-12.949,44.677-13.603,92.02-1.893,137.037l0,0
	c7.406,28.468,33.107,48.339,62.522,48.339h173.216c29.416,0,55.117-19.871,62.522-48.339l0,0
	C417.989,413.608,417.335,366.264,404.387,321.588z"/>
<path style="opacity:0.1;enable-background:new    ;" d="M361.744,488.977H188.528c-29.416,0-55.117-19.871-62.522-48.339l0,0
	c-11.71-45.017-11.056-92.36,1.893-137.037l0,0c3.221-11.115,8.443-21.422,15.304-30.473
	c-15.923,12.091-27.661,29.039-33.291,48.461l0,0c-12.949,44.677-13.603,92.02-1.893,137.037l0,0
	c7.406,28.468,33.107,48.339,62.522,48.339h173.216c22.086,0,42.078-11.203,53.803-28.836
	C387.217,485.022,374.853,488.977,361.744,488.977z"/>
<g>
	<path style="opacity:0.3;fill:#FFFFFF;enable-background:new    ;" d="M367.512,43.959h-55.64
		c7.755,14.402,22.969,24.192,40.472,24.192c4.743,0,9.318-0.72,13.622-2.054l7.607-9.583
		C377.602,51.44,373.989,43.959,367.512,43.959z"/>
	<circle style="opacity:0.35;fill:#FFFFFF;enable-background:new    ;" cx="283.63" cy="395.87" r="27.936"/>
	<path style="opacity:0.35;fill:#FFFFFF;enable-background:new    ;" d="M404.387,321.588L404.387,321.588
		c-6.844-23.616-22.71-43.59-44.164-55.6l0,0c-13.32-7.457-23.044-19.598-27.595-33.703c-20.898,12.19-34.954,34.832-34.954,60.77
		c0,38.836,31.483,70.319,70.319,70.319c16.071,0,30.874-5.403,42.717-14.476C409.099,339.713,406.997,330.596,404.387,321.588z"/>
</g>
<ellipse transform="matrix(-0.6221 -0.7829 0.7829 -0.6221 231.6771 990.3925)" style="fill:#00A155;" cx="354.847" cy="439.286" rx="76.822" ry="65.599"/>
<path style="opacity:0.1;enable-background:new    ;" d="M404.611,482.359c-28.364,22.536-72.752,13.879-99.146-19.339
	c-12.449-15.667-18.664-33.998-18.787-51.361c-5.318,21.792,0.182,47.506,16.829,68.458c26.393,33.218,70.782,41.875,99.146,19.338
	c14.986-11.907,22.493-30.14,22.354-49.59C421.896,462.623,415.085,474.038,404.611,482.359z"/>
<path style="opacity:0.2;fill:#FFFFFF;enable-background:new    ;" d="M362.611,369.166c-0.664,0.453-1.32,0.924-1.958,1.432
	c-14.387,11.431-16.784,32.362-5.352,46.75c11.431,14.387,32.362,16.784,46.75,5.352c5.063-4.022,8.634-9.223,10.646-14.9
	c-1.932-3.179-4.084-6.287-6.474-9.294C394.309,383.512,378.728,373.541,362.611,369.166z"/>
</svg>